<?xml version="1.0" encoding="UTF-8" standalone="no"?>
<!-- Created with Sodipodi ("http://www.sodipodi.com/") -->

<svg
   xmlns:dc="http://purl.org/dc/elements/1.1/"
   xmlns:cc="http://creativecommons.org/ns#"
   xmlns:rdf="http://www.w3.org/1999/02/22-rdf-syntax-ns#"
   xmlns:svg="http://www.w3.org/2000/svg"
   xmlns="http://www.w3.org/2000/svg"
   xmlns:xlink="http://www.w3.org/1999/xlink"
   xmlns:sodipodi="http://sodipodi.sourceforge.net/DTD/sodipodi-0.dtd"
   xmlns:inkscape="http://www.inkscape.org/namespaces/inkscape"
   width="100%"
   height="100%"
   viewBox="0 0 88 87.999"
   id="svg602"
   sodipodi:version="0.34"
   sodipodi:docname="symbian-icon.svg"
   version="1.1"
   inkscape:version="0.47 r22583">
  <metadata
     id="metadata16">
    <rdf:RDF>
      <cc:Work
         rdf:about="">
        <dc:format>image/svg+xml</dc:format>
        <dc:type
           rdf:resource="http://purl.org/dc/dcmitype/StillImage" />
      </cc:Work>
    </rdf:RDF>
  </metadata>
  <defs
     id="defs645">
    <inkscape:perspective
       sodipodi:type="inkscape:persp3d"
       inkscape:vp_x="0 : 43.9995 : 1"
       inkscape:vp_y="0 : 1000 : 0"
       inkscape:vp_z="88 : 43.9995 : 1"
       inkscape:persp3d-origin="44 : 29.333 : 1"
       id="perspective18" />
    <linearGradient
       id="linearGradient649">
      <stop
         style="stop-color:#000;stop-opacity:1;"
         offset="0"
         id="stop650" />
      <stop
         style="stop-color:#fff;stop-opacity:1;"
         offset="1"
         id="stop651" />
    </linearGradient>
    <radialGradient
       xlink:href="#linearGradient649"
       id="radialGradient652"
       cx="0.36065584"
       cy="0.3984375"
       r="0.25276253"
       fx="0.36065584"
       fy="0.3984375" />
    <linearGradient
       xlink:href="#linearGradient649"
       id="linearGradient653"
       x1="0.64754111"
       y1="0.5"
       x2="0.57377058"
       y2="0.328125" />
    <linearGradient
       xlink:href="#linearGradient649"
       id="linearGradient660"
       x1="-4.81457807e-9"
       y1="-6.63811051e-9"
       x2="1"
       y2="-6.63811051e-9" />
    <radialGradient
       xlink:href="#linearGradient649"
       id="radialGradient661"
       cx="0.5"
       cy="0.5"
       r="0.5"
       fx="0.5"
       fy="0.5" />
  </defs>
  <sodipodi:namedview
     id="base"
     showgrid="false"
     inkscape:zoom="2.6818487"
     inkscape:cx="44"
     inkscape:cy="41.762238"
     inkscape:window-width="849"
     inkscape:window-height="702"
     inkscape:window-x="530"
     inkscape:window-y="273"
     inkscape:window-maximized="0"
     inkscape:current-layer="svg602" />
  <rect
     style="fill:#b3b3b3;fill-rule:evenodd;stroke:#000000;stroke-width:1px;stroke-linecap:butt;stroke-linejoin:miter;stroke-opacity:1"
     id="rect2876"
     width="65.253494"
     height="67.490761"
     x="11.932068"
     y="10.813437" />
  <path
     style="fill:#ffff00"
     id="path2892"
     d="m 9.5638483,6.692259 c 0.1694909,0.8801206 0.2185275,1.7752673 0.2640901,2.6683896 0.063096,1.2964134 0.6297006,2.4026004 1.3059536,3.4768504 1.012819,1.416036 2.414218,2.475704 3.807088,3.491995 1.228554,0.923514 2.70676,1.379681 4.12084,1.928951 2.250846,0.874295 0.649805,0.318059 3.108156,1.109304 3.121838,1.046851 6.35626,1.683173 9.530257,2.538289 0.726197,0.236772 1.472093,0.480111 2.094838,0.93977 0.396779,0.292868 0.696237,0.703132 1.019997,1.069058 0.812679,0.752113 1.550948,1.590558 2.475264,2.20849 1.034023,0.547863 1.803177,1.417423 2.61033,2.241178 1.141389,1.358567 2.322934,2.669074 3.634156,3.865651 1.572436,1.452999 3.338477,2.667597 5.1312,3.828307 1.08354,0.684589 2.26143,1.207545 3.346031,1.889923 1.342592,0.844694 2.642787,1.772679 3.975272,2.635491 1.735897,1.187131 3.543231,2.284819 5.150083,3.647831 1.049026,0.88914 1.547468,1.980467 1.849381,3.288914 0.140622,1.103089 0.45839,2.167069 0.788394,3.224932 0.359649,1.153665 0.585207,2.341073 0.850096,3.518322 0.309652,1.390051 0.570586,2.790169 0.851171,4.186425 0.304121,1.769964 1.45323,2.64239 2.663244,3.825714 1.520597,1.35286 3.352373,2.196632 5.237061,2.902603 1.332889,0.491473 2.264062,1.441282 3.079058,2.561035 0.627482,0.873475 1.225683,1.75104 1.920421,2.576554 0.655936,0.644881 1.151582,1.396348 1.892635,1.949303 0.470849,0.406734 1.03605,0.715311 1.441423,1.198212 0.267752,0.318959 0.445607,0.688773 0.643702,1.050688 0.422863,0.899585 0.914754,1.764132 1.383378,2.64013 0,0 -4.648097,2.659297 -4.648097,2.659297 l 0,0 C 78.635423,78.936374 78.126856,78.090485 77.673979,77.212537 77.482137,76.889212 77.337835,76.602516 77.082927,76.325624 76.669043,75.876046 76.115964,75.57756 75.663704,75.172572 74.905763,74.581639 74.381735,73.806831 73.737711,73.101516 73.043899,72.262361 72.391113,71.403079 71.784645,70.498725 71.047738,69.457966 70.194674,68.596526 68.970017,68.137273 67.059386,67.368628 65.202092,66.40468 63.642331,65.042488 62.42048,63.874772 61.005619,62.752995 60.72132,60.983672 60.485656,59.586421 60.21662,58.191514 59.871053,56.817352 59.621071,55.652756 59.36479,54.490178 59.022928,53.348537 58.696611,52.273921 58.322663,51.203583 58.225317,50.076619 57.985266,48.895402 57.511697,47.869081 56.576845,47.066541 55.067812,45.68543 53.350128,44.543594 51.706534,43.333004 50.375984,42.471935 49.058573,41.566653 47.690617,40.765499 47.318104,40.547334 45.729599,39.721047 45.323518,39.495907 44.968432,39.29904 44.620355,39.089788 44.268773,38.886729 42.430588,37.732807 40.655524,36.477315 39.053286,35.006954 37.723201,33.810428 36.520501,32.491212 35.299257,31.185308 34.490448,30.397837 33.720561,29.579581 32.713853,29.035802 31.790994,28.349643 31.020348,27.489495 30.155075,26.734566 29.865978,26.413982 29.595364,26.036121 29.248468,25.77351 28.687953,25.349182 28.012852,25.117387 27.364717,24.869046 24.280514,23.865763 21.112536,23.143625 18.009294,22.202893 15.419755,21.423158 12.747805,20.642997 10.449596,19.181631 8.9960973,18.142369 7.6154799,16.963712 6.5395398,15.526785 5.7669274,14.406863 5.1089769,13.236981 5.0032441,11.848661 4.9638803,11.002894 4.9239628,10.145125 4.6946871,9.3254027 c 0,0 4.8691612,-2.6331437 4.8691612,-2.6331437 z" />
  <path
     style="fill:#ffff00"
     id="path2894"
     d="m 2.8681318,79.53521 c 0.955824,-1.041431 2.1209167,-1.859457 3.1441,-2.830892 0.6211611,-0.589746 0.8786426,-0.903254 1.4370453,-1.529717 1.0070303,-1.030457 1.2874548,-2.374705 1.7410301,-3.673336 0.1627634,-0.215108 0.2934164,-0.458809 0.4882903,-0.645323 0.5971865,-0.571567 1.9000975,-1.390444 2.5146905,-1.805955 1.320397,-0.892689 2.59729,-1.79377 3.828995,-2.804745 0.272091,-0.271931 0.551142,-0.537071 0.816273,-0.815792 0.816407,-0.858253 1.538221,-1.792768 2.368175,-2.641103 0.858344,-0.877354 2.167673,-2.098705 3.040347,-2.92467 2.817556,-2.83751 6.256909,-4.884127 9.44532,-7.250662 2.137283,-1.829229 4.003549,-3.726525 5.32579,-6.224665 0.707707,-1.478014 0.946051,-3.102601 1.459417,-4.645295 1.27767,-2.47084 2.940352,-4.708467 4.561684,-6.958981 1.293228,-1.780451 2.455871,-3.650071 3.716713,-5.45311 0.914761,-1.181933 1.408732,-2.603867 1.999782,-3.959695 0.463749,-1.097654 1.081156,-2.109134 1.839041,-3.024916 0.6086,-0.715719 1.296223,-1.355488 2.013179,-1.960224 0.551733,-0.396291 0.413301,-0.313418 1.143467,-0.735676 1.858759,-1.074928 3.708325,-2.166254 5.583896,-3.211571 1.466365,-0.817253 3.07438,-1.426645 4.60337,-2.114332 1.480944,-0.784754 6.424959,-3.229805 -0.778118,0.546826 -0.395966,0.207608 0.754938,-0.479211 1.134156,-0.716031 1.908766,-1.192011 0.214389,-0.111692 1.917665,-1.205057 1.403833,-1.121831 2.99289,-1.989976 4.32169,-3.2030371 0,0 4.94733,-2.0363657 4.94733,-2.0363657 l 0,0 c -0.525628,0.5250659 -0.652475,0.6895942 -1.273652,1.1434984 -1.020617,0.745782 -2.148687,1.3366714 -3.094997,2.1878204 -3.598652,2.318707 -7.240849,4.626514 -11.131978,6.421414 -0.920349,0.412683 -2.319501,1.02998 -3.214804,1.473513 -0.498838,0.247125 -1.952616,1.068577 -1.478008,0.777617 6.228082,-3.818134 3.822944,-2.166467 2.382097,-1.351003 -0.760524,0.540003 -1.416481,1.201671 -2.073546,1.858665 -0.765784,0.905392 -1.496612,1.812767 -1.973892,2.916373 -0.605723,1.385137 -1.068062,2.873669 -1.99173,4.084125 -1.364381,1.790564 -2.513336,3.733387 -3.880569,5.522916 -1.596761,2.172555 -3.166949,4.364736 -4.457895,6.73762 -0.535272,1.572868 -0.745232,3.242912 -1.486023,4.748153 -0.497118,0.968426 -0.545888,1.149515 -1.209567,2.064555 -1.192184,1.64371 -2.694309,3.018912 -4.144212,4.426889 -3.243854,2.401098 -6.801356,4.392315 -9.671902,7.274244 -0.708084,0.686162 -2.134058,2.049697 -2.846179,2.804806 -1.07775,1.142809 -1.9739,2.447099 -3.133551,3.51596 -1.251229,1.045243 -2.553159,1.966544 -3.899499,2.886218 -0.208367,0.142334 -1.919777,1.29473 -2.280853,1.574522 -0.179184,0.138847 -0.336315,0.304028 -0.504473,0.456042 -0.300445,0.5896 -0.339919,1.066733 -0.565336,1.680172 -0.29414,0.800456 -0.698838,1.54956 -1.239587,2.211726 -0.455399,0.515116 -0.983992,1.130469 -1.473429,1.608555 -0.9368312,0.915107 -2.0073194,1.686269 -2.9086275,2.637623 0,0 -5.0611157,2.162301 -5.0611157,2.162301 z" />
</svg>
